<?xml version="1.0" standalone="no"?>
<!DOCTYPE svg PUBLIC "-//W3C//DTD SVG 20010904//EN"
 "http://www.w3.org/TR/2001/REC-SVG-20010904/DTD/svg10.dtd">
<svg version="1.0" xmlns="http://www.w3.org/2000/svg"
 width="740.000000pt" height="740.000000pt" viewBox="0 0 740.000000 740.000000"
 preserveAspectRatio="xMidYMid meet">

<g transform="translate(0.000000,740.000000) scale(0.100000,-0.100000)"
fill="#000000" stroke="none">
<path d="M620 7377 c207 -86 354 -281 377 -498 5 -50 9 -58 29 -62 21 -4 24
-1 24 30 0 62 -31 177 -70 258 -46 96 -134 196 -223 254 -56 37 -68 41 -127
41 l-65 0 55 -23z"/>
<path d="M965 7378 c4 -13 18 -49 32 -80 23 -52 27 -56 48 -46 l22 10 -30 69
c-26 57 -35 69 -55 69 -20 0 -22 -4 -17 -22z"/>
<path d="M1106 7351 c37 -77 55 -159 55 -256 0 -196 -84 -363 -241 -484 -51
-39 -57 -47 -47 -63 7 -10 15 -18 18 -18 4 0 33 20 65 45 116 89 204 224 238
366 31 125 17 295 -33 412 -18 41 -24 47 -49 47 l-29 0 23 -49z"/>
<path d="M1325 7355 c97 -86 250 -150 375 -157 50 -3 55 -1 58 20 3 18 -1 22
-25 22 -97 1 -274 67 -345 129 -27 23 -45 31 -74 31 l-39 -1 50 -44z"/>
<path d="M2068 7365 c198 -93 320 -258 353 -478 10 -66 13 -73 32 -72 20 2 22
7 19 51 -10 169 -110 358 -240 457 -97 73 -106 77 -174 77 l-63 -1 73 -34z"/>
<path d="M2390 7385 c0 -9 13 -45 30 -81 27 -60 31 -64 50 -54 12 6 19 17 16
23 -3 7 -15 38 -28 69 -18 46 -28 58 -45 58 -14 0 -23 -6 -23 -15z"/>
<path d="M2536 7344 c116 -262 34 -570 -196 -739 -43 -31 -48 -39 -40 -56 10
-18 13 -18 39 -4 52 26 144 119 193 194 116 177 137 395 58 604 -19 51 -24 57
-50 57 l-29 0 25 -56z"/>
<path d="M2754 7354 c91 -83 230 -144 369 -159 56 -6 57 -6 57 18 0 23 -5 25
-62 31 -95 11 -185 45 -272 103 -54 36 -89 53 -110 53 l-31 -1 49 -45z"/>
<path d="M3474 7375 c203 -83 350 -278 374 -496 6 -55 10 -63 30 -64 19 -1 22
3 22 34 -1 180 -127 400 -291 510 -56 38 -67 41 -128 41 l-66 0 59 -25z"/>
<path d="M3815 7378 c10 -32 57 -138 62 -138 2 0 12 5 22 12 18 11 18 13 -4
62 -12 28 -25 59 -28 69 -4 10 -17 17 -32 17 -23 0 -25 -3 -20 -22z"/>
<path d="M3940 7396 c0 -2 11 -28 24 -57 79 -181 61 -405 -44 -568 -42 -65
-125 -151 -172 -179 -30 -17 -33 -28 -19 -51 21 -32 175 104 239 212 60 99 85
188 90 317 4 121 -7 190 -48 285 -16 36 -24 45 -45 45 -14 0 -25 -2 -25 -4z"/>
<path d="M4130 7396 c0 -2 28 -27 63 -54 107 -85 217 -130 360 -147 57 -7 57
-7 57 19 0 22 -5 26 -27 26 -97 1 -249 57 -336 123 -33 26 -57 37 -82 37 -19
0 -35 -2 -35 -4z"/>
<path d="M4937 7355 c188 -92 315 -273 338 -482 6 -53 10 -59 29 -58 19 2 21
7 18 51 -9 161 -102 346 -224 445 -89 73 -123 89 -190 89 l-63 0 92 -45z"/>
<path d="M5245 7373 c3 -16 17 -52 30 -81 22 -48 26 -52 45 -42 12 6 20 14 18
18 -2 4 -14 35 -28 70 -21 51 -29 62 -49 62 -20 0 -22 -3 -16 -27z"/>
<path d="M5380 7359 c33 -63 60 -185 60 -264 0 -90 -30 -208 -72 -288 -32 -60
-130 -169 -196 -218 -30 -22 -32 -26 -19 -43 14 -19 16 -18 65 18 65 47 145
135 183 200 98 170 113 403 38 585 -19 45 -25 51 -51 51 l-28 0 20 -41z"/>
<path d="M5581 7374 c74 -82 254 -164 387 -178 61 -7 62 -7 62 17 0 22 -5 25
-57 31 -98 11 -193 47 -276 103 -53 36 -88 53 -109 53 l-31 0 24 -26z"/>
<path d="M6324 7375 c128 -52 244 -158 308 -281 41 -78 56 -129 66 -217 6 -53
10 -61 30 -62 20 -1 22 3 22 40 0 65 -36 189 -77 268 -46 86 -137 187 -217
239 -54 34 -65 38 -125 38 l-66 0 59 -25z"/>
<path d="M6669 7373 c11 -36 52 -133 57 -133 3 0 13 5 23 11 17 11 17 15 -10
78 -23 54 -32 67 -53 69 -23 3 -24 1 -17 -25z"/>
<path d="M6793 7388 c39 -88 57 -146 67 -210 31 -209 -66 -444 -233 -563 -58
-41 -63 -50 -48 -74 21 -33 176 105 240 212 97 163 121 369 65 542 -28 84 -42
105 -70 105 -17 0 -24 -4 -21 -12z"/>
<path d="M6985 7391 c13 -22 135 -106 192 -133 70 -33 153 -58 196 -58 23 0
28 4 25 22 -2 18 -14 24 -67 34 -77 16 -170 58 -234 107 -34 27 -57 37 -83 37
-19 0 -33 -4 -29 -9z"/>
<path d="M0 7309 c0 -23 7 -32 38 -48 51 -26 165 -58 235 -66 56 -6 57 -6 57
19 0 22 -5 26 -27 26 -57 1 -168 31 -235 64 l-68 34 0 -29z"/>
<path d="M429 7175 c-156 -31 -305 -124 -394 -245 -39 -53 -43 -75 -19 -84 9
-4 18 -5 18 -4 1 2 21 28 43 59 70 95 167 164 287 204 144 48 290 43 429 -15
64 -27 68 -27 77 -10 6 10 10 21 10 24 0 2 -35 18 -78 35 -132 50 -245 61
-373 36z"/>
<path d="M1874 7179 c-139 -23 -264 -91 -365 -197 -80 -84 -101 -119 -78 -133
22 -13 24 -12 54 31 48 69 150 156 227 194 165 81 353 85 515 11 31 -14 57
-24 57 -23 1 2 8 11 15 20 12 16 7 21 -50 47 -114 53 -251 71 -375 50z"/>
<path d="M3280 7175 c-84 -18 -161 -50 -230 -93 -61 -39 -165 -141 -193 -190
-17 -30 -17 -31 4 -42 11 -7 22 -10 23 -8 30 49 99 128 138 159 183 145 424
177 630 86 58 -26 58 -26 69 -6 12 24 13 22 -26 42 -110 55 -296 79 -415 52z"/>
<path d="M4728 7180 c-70 -12 -166 -46 -225 -80 -63 -36 -164 -129 -205 -188
-29 -41 -29 -45 -13 -60 16 -16 18 -15 38 13 12 17 54 62 94 102 112 111 260
172 419 173 70 0 193 -29 254 -60 23 -12 43 -20 44 -18 1 2 8 11 15 20 12 16
7 21 -51 48 -109 51 -250 70 -370 50z"/>
<path d="M6175 7184 c-179 -29 -339 -122 -439 -255 -44 -58 -46 -64 -30 -76
10 -7 20 -13 23 -13 3 1 22 24 41 51 100 144 306 249 490 249 72 0 171 -22
241 -53 57 -25 79 -22 79 9 0 13 -68 44 -150 68 -57 17 -202 28 -255 20z"/>
<path d="M7330 7084 c-67 -43 -129 -102 -177 -167 -34 -46 -35 -49 -19 -65 17
-16 19 -15 44 18 53 69 115 130 168 165 41 27 54 42 54 61 0 13 -3 24 -8 24
-4 0 -32 -16 -62 -36z"/>
<path d="M489 7056 c-174 -136 -259 -309 -259 -526 0 -103 16 -183 55 -267 25
-55 30 -59 54 -44 12 8 10 19 -12 68 -36 81 -49 145 -50 243 0 100 20 186 66
277 35 71 136 189 192 223 37 23 43 41 22 58 -10 9 -26 1 -68 -32z"/>
<path d="M1912 7055 c-240 -181 -328 -514 -206 -786 27 -59 40 -69 61 -48 9 9
7 21 -6 48 -44 87 -56 143 -56 261 0 86 5 129 19 170 47 136 129 254 225 320
27 19 50 38 51 41 0 3 -6 13 -13 23 -12 16 -17 14 -75 -29z"/>
<path d="M3340 7057 c-85 -67 -146 -142 -190 -231 -53 -108 -70 -180 -70 -296
0 -103 16 -183 55 -267 25 -55 30 -59 55 -43 12 8 11 15 -7 54 -54 111 -70
283 -38 408 34 130 135 276 239 345 38 25 42 31 33 51 -6 12 -13 22 -16 22 -3
0 -31 -19 -61 -43z"/>
<path d="M4758 7050 c-85 -64 -140 -133 -189 -235 -85 -177 -89 -362 -13 -542
26 -62 39 -74 61 -52 8 8 4 26 -13 64 -101 220 -50 498 121 669 36 36 78 73
95 83 34 20 35 23 18 46 -12 15 -19 12 -80 -33z"/>
<path d="M6204 7066 c-117 -79 -217 -225 -254 -372 -36 -141 -19 -327 40 -443
21 -43 26 -46 49 -32 12 8 11 17 -7 59 -51 117 -66 263 -41 384 26 129 133
290 239 361 44 30 47 34 36 55 l-12 22 -50 -34z"/>
<path d="M390 6774 c0 -109 64 -273 145 -376 107 -134 308 -237 463 -238 38 0
42 2 42 24 0 21 -5 24 -67 29 -267 23 -508 264 -530 529 -5 63 -8 68 -29 68
-21 0 -24 -5 -24 -36z"/>
<path d="M1817 6758 c18 -178 92 -322 220 -438 99 -88 272 -160 385 -160 45 0
48 2 48 25 0 23 -4 25 -46 25 -124 0 -273 69 -379 175 -102 102 -162 225 -180
373 -6 46 -10 52 -30 52 -23 0 -24 -2 -18 -52z"/>
<path d="M3240 6778 c1 -105 62 -269 138 -367 110 -144 310 -250 470 -251 38
0 42 2 42 25 0 23 -4 25 -43 25 -124 0 -262 65 -375 176 -67 67 -89 97 -121
165 -40 86 -61 164 -61 224 0 31 -3 35 -25 35 -22 0 -25 -4 -25 -32z"/>
<path d="M4671 6741 c11 -97 25 -145 72 -236 54 -105 163 -215 264 -268 80
-42 203 -77 270 -77 39 0 43 2 43 25 0 23 -4 25 -47 25 -123 0 -275 71 -378
174 -102 103 -162 226 -180 374 -6 45 -10 52 -29 52 -21 0 -22 -2 -15 -69z"/>
<path d="M6090 6778 c1 -66 31 -175 71 -258 56 -114 178 -238 289 -292 83 -41
181 -68 251 -68 41 0 45 2 44 23 -1 20 -8 23 -70 29 -129 13 -241 66 -344 164
-106 100 -173 233 -187 369 -6 60 -9 65 -30 65 -20 0 -24 -5 -24 -32z"/>
<path d="M1380 6749 c-62 -102 -218 -209 -355 -244 -121 -31 -285 -14 -398 40
l-48 22 -11 -20 c-14 -27 0 -37 105 -72 106 -35 240 -44 346 -21 153 32 315
138 396 259 31 47 33 51 17 63 -24 18 -24 18 -52 -27z"/>
<path d="M2787 6725 c-164 -221 -476 -298 -733 -181 l-52 24 -10 -23 c-10 -21
-7 -25 47 -49 272 -122 610 -38 785 195 25 34 46 65 46 70 0 4 -8 13 -18 18
-15 8 -26 -1 -65 -54z"/>
<path d="M4230 6749 c-64 -104 -216 -209 -355 -244 -119 -30 -291 -13 -396 40
-49 24 -49 24 -60 4 -14 -28 4 -40 106 -75 269 -90 572 7 741 237 35 48 36 51
18 64 -26 20 -26 20 -54 -26z"/>
<path d="M5637 6725 c-159 -220 -477 -298 -733 -181 l-52 24 -10 -23 c-10 -22
-7 -25 61 -53 224 -93 480 -58 670 93 52 41 147 155 147 176 0 4 -8 13 -18 18
-15 8 -26 -1 -65 -54z"/>
<path d="M7082 6747 c-77 -111 -239 -219 -370 -246 -124 -26 -280 -7 -383 45
l-48 24 -11 -21 c-7 -11 -10 -22 -8 -24 18 -15 104 -50 165 -66 210 -53 442 7
601 155 57 53 130 144 120 150 -1 1 -10 7 -20 14 -14 11 -20 7 -46 -31z"/>
<path d="M0 6755 c1 -26 2 -28 11 -12 8 14 8 22 0 30 -8 8 -11 3 -11 -18z"/>
<path d="M7375 6698 c-26 -90 -25 -262 3 -343 l20 -60 1 233 c1 127 -1 232 -3
232 -2 0 -12 -28 -21 -62z"/>
<path d="M1110 6412 c0 -23 9 -27 92 -36 252 -29 482 -270 505 -528 6 -64 7
-68 31 -68 25 0 25 1 19 68 -26 299 -280 553 -579 579 -64 6 -68 5 -68 -15z"/>
<path d="M2532 6408 c2 -11 10 -22 18 -23 8 -1 41 -5 72 -9 178 -20 369 -159
453 -330 34 -68 64 -181 65 -238 0 -23 4 -28 26 -28 26 0 26 0 19 58 -11 94
-25 143 -67 232 -55 114 -177 238 -288 292 -84 42 -182 68 -253 68 -44 0 -48
-2 -45 -22z"/>
<path d="M3960 6410 c0 -14 9 -20 38 -25 149 -23 229 -54 330 -129 130 -96
226 -275 234 -433 2 -38 5 -43 25 -43 20 0 23 5 23 43 0 110 -62 269 -144 370
-110 135 -308 237 -458 237 -41 0 -48 -3 -48 -20z"/>
<path d="M5385 6408 c1 -19 8 -23 46 -26 132 -10 260 -67 363 -163 110 -103
178 -235 192 -374 6 -60 9 -65 30 -65 19 0 24 5 24 25 0 62 -34 187 -72 265
-55 114 -177 238 -288 292 -83 41 -181 68 -251 68 -41 0 -45 -2 -44 -22z"/>
<path d="M6810 6411 c0 -22 19 -31 63 -31 103 -1 263 -76 357 -169 70 -69 108
-126 146 -219 l24 -57 0 65 c0 84 -35 147 -134 245 -109 107 -280 185 -408
185 -40 0 -48 -3 -48 -19z"/>
<path d="M384 6370 c-8 -8 -5 -25 13 -61 86 -180 65 -419 -54 -592 -41 -61
-130 -148 -179 -175 -15 -9 -15 -12 -2 -31 l16 -22 63 48 c237 180 322 502
206 779 -25 59 -43 74 -63 54z"/>
<path d="M1813 6372 c-9 -6 -6 -23 13 -71 77 -191 65 -379 -36 -551 -35 -61
-135 -166 -189 -201 -21 -13 -22 -18 -12 -37 l12 -22 43 29 c72 50 170 164
209 243 49 99 69 186 70 293 0 99 -13 167 -50 263 -24 60 -35 70 -60 54z"/>
<path d="M3234 6370 c-8 -8 -4 -25 12 -58 53 -112 70 -277 39 -397 -40 -158
-123 -268 -284 -381 -1 -2 4 -12 12 -24 14 -21 15 -21 78 27 220 167 315 473
226 729 -39 113 -55 132 -83 104z"/>
<path d="M4663 6372 c-10 -6 -5 -26 18 -81 95 -225 44 -478 -130 -652 -42 -41
-87 -82 -100 -90 -21 -13 -22 -18 -12 -37 l12 -22 43 30 c101 69 195 187 237
299 64 169 59 344 -13 514 -20 46 -31 54 -55 39z"/>
<path d="M6091 6371 c-12 -8 -11 -17 7 -59 36 -83 52 -161 52 -252 0 -195 -88
-372 -241 -485 -52 -38 -56 -43 -45 -64 12 -22 12 -22 72 22 244 180 333 513
210 791 -26 58 -31 62 -55 47z"/>
<path d="M0 6322 c0 -23 9 -35 41 -57 129 -90 222 -254 244 -428 7 -52 9 -57
32 -57 24 0 24 1 18 58 -9 85 -42 189 -82 262 -38 69 -164 202 -220 233 l-33
18 0 -29z"/>
<path d="M1102 6130 c-143 -38 -271 -125 -359 -244 l-44 -60 22 -12 c21 -11
25 -8 52 32 69 105 216 204 352 239 122 31 288 15 398 -39 45 -22 48 -22 57
-5 15 27 14 28 -47 56 -125 55 -296 68 -431 33z"/>
<path d="M2580 6143 c-89 -15 -215 -73 -297 -136 -50 -39 -153 -159 -153 -178
0 -5 9 -13 19 -19 16 -8 23 -5 40 24 38 60 162 169 234 204 165 80 377 83 525
8 48 -24 48 -24 61 -4 15 23 17 20 -37 47 -97 49 -275 74 -392 54z"/>
<path d="M3965 6134 c-141 -34 -285 -130 -372 -248 -44 -60 -44 -60 -22 -72
21 -11 26 -7 64 45 166 226 471 304 737 189 50 -21 51 -21 65 -2 13 18 10 21
-44 46 -122 56 -296 74 -428 42z"/>
<path d="M5384 6131 c-149 -40 -295 -141 -376 -259 -30 -44 -30 -45 -12 -59
17 -13 21 -12 39 14 11 15 52 60 91 99 116 118 252 174 423 174 92 0 180 -19
251 -55 46 -23 46 -23 59 -3 14 23 16 20 -28 43 -83 42 -146 57 -261 61 -92 3
-129 0 -186 -15z"/>
<path d="M6819 6135 c-134 -33 -266 -116 -354 -223 -59 -70 -65 -86 -38 -100
13 -8 25 2 61 50 168 224 469 300 734 186 50 -21 51 -21 65 -3 12 18 10 21
-33 43 -113 57 -305 78 -435 47z"/>
<path d="M0 6106 c0 -14 6 -26 13 -26 6 0 40 -13 73 -29 l62 -29 10 23 c10 21
7 25 -46 48 -31 14 -69 29 -84 32 -25 6 -28 5 -28 -19z"/>
<path d="M1190 6011 c-75 -61 -149 -151 -185 -226 -86 -182 -86 -407 0 -576
23 -44 20 -42 43 -28 20 13 20 13 -4 61 -52 103 -69 269 -39 396 31 130 133
280 244 356 35 25 38 30 28 47 -6 10 -15 19 -19 19 -4 0 -34 -22 -68 -49z"/>
<path d="M2623 6017 c-84 -62 -138 -129 -188 -232 -55 -114 -69 -176 -68 -295
0 -104 20 -195 59 -272 22 -43 27 -47 45 -37 11 6 18 16 15 22 -99 224 -99
388 2 582 38 72 161 207 201 220 24 7 27 27 7 44 -10 9 -26 2 -73 -32z"/>
<path d="M4060 6026 c-206 -152 -308 -418 -255 -669 12 -59 61 -187 72 -187 2
0 12 5 22 12 18 11 17 14 -9 72 -52 114 -65 263 -35 381 35 137 133 281 242
356 37 26 42 33 33 50 -14 25 -17 24 -70 -15z"/>
<path d="M5473 6016 c-238 -175 -324 -519 -198 -794 22 -48 26 -52 45 -42 24
13 24 12 1 58 -51 100 -70 278 -42 392 38 153 151 313 268 379 16 8 10 51 -7
51 -4 0 -35 -20 -67 -44z"/>
<path d="M6910 6026 c-205 -150 -310 -425 -255 -666 15 -63 63 -190 72 -190 2
0 13 5 24 10 19 11 19 11 -2 51 -32 63 -59 185 -59 264 0 90 30 208 72 288 38
70 121 165 185 208 37 26 42 33 33 50 -14 25 -17 24 -70 -15z"/>
<path d="M1105 5712 c33 -311 278 -556 587 -588 65 -6 66 -6 66 19 0 23 -4 25
-67 31 -276 28 -508 260 -537 537 -6 60 -8 65 -31 67 l-25 2 7 -68z"/>
<path d="M2530 5734 c0 -69 27 -168 68 -254 54 -111 177 -233 292 -288 78 -38
203 -72 265 -72 20 0 25 5 25 25 0 22 -4 25 -33 25 -55 0 -184 37 -250 72 -89
46 -205 165 -249 253 -46 91 -58 131 -66 213 -6 59 -10 67 -29 70 -21 3 -23
-1 -23 -44z"/>
<path d="M3953 5763 c-8 -21 18 -154 43 -220 84 -227 302 -394 547 -419 67 -7
67 -7 67 18 0 24 -4 26 -67 32 -250 26 -459 210 -523 462 -11 43 -20 92 -20
110 0 27 -4 32 -21 31 -12 -1 -23 -7 -26 -14z"/>
<path d="M5380 5737 c0 -66 35 -190 77 -270 56 -109 173 -222 283 -275 79 -38
205 -72 265 -72 20 0 25 5 25 25 0 22 -4 25 -33 25 -55 0 -184 37 -250 72 -87
46 -204 165 -249 253 -41 79 -56 131 -66 218 -6 52 -10 60 -29 63 -21 4 -23 0
-23 -39z"/>
<path d="M6807 5773 c-4 -4 -4 -29 -1 -57 37 -309 253 -536 562 -590 29 -5 32
-3 32 19 0 25 -7 29 -75 40 -61 10 -193 76 -257 128 -65 54 -146 170 -178 254
-12 32 -27 93 -33 135 -9 61 -15 78 -27 78 -9 0 -20 -3 -23 -7z"/>
<path d="M671 5716 c-38 -61 -155 -162 -233 -200 -124 -61 -275 -80 -410 -50
-25 6 -28 3 -28 -19 0 -23 5 -27 48 -34 26 -4 90 -7 142 -7 204 4 395 106 520
280 29 41 30 43 11 54 -27 14 -27 14 -50 -24z"/>
<path d="M2095 5718 c-82 -140 -280 -252 -469 -265 -89 -6 -204 16 -287 56
-52 25 -46 25 -59 1 -10 -19 -5 -23 54 -51 272 -127 633 -25 799 225 20 30 24
43 15 53 -17 21 -32 15 -53 -19z"/>
<path d="M3521 5716 c-12 -19 -52 -63 -90 -99 -179 -169 -439 -213 -659 -112
-55 25 -71 23 -72 -11 0 -13 68 -44 155 -70 94 -29 257 -24 360 9 141 47 266
138 345 251 29 43 30 46 11 56 -27 14 -27 14 -50 -24z"/>
<path d="M4937 5703 c-109 -147 -271 -235 -457 -250 -89 -7 -194 13 -278 52
-30 14 -56 25 -58 25 -2 0 -8 -9 -14 -20 -9 -17 -5 -22 38 -44 191 -97 449
-79 637 44 105 69 217 199 194 226 -18 21 -25 18 -62 -33z"/>
<path d="M6351 5691 c-104 -143 -299 -241 -481 -241 -73 0 -172 22 -244 54
-46 21 -61 24 -68 14 -15 -25 -8 -36 40 -56 147 -63 316 -76 452 -33 145 45
259 121 340 229 45 61 48 68 33 80 -9 6 -19 12 -23 12 -3 0 -25 -27 -49 -59z"/>
<path d="M7340 5579 c-63 -47 -65 -49 -48 -72 12 -15 17 -13 61 18 38 28 47
41 47 65 0 17 -1 30 -3 30 -1 0 -27 -18 -57 -41z"/>
<path d="M6980 5510 c-9 -17 -5 -22 38 -44 90 -45 236 -73 328 -61 48 6 54 9
54 30 0 23 -1 23 -74 18 -85 -7 -192 14 -274 52 -30 14 -56 25 -58 25 -2 0 -8
-9 -14 -20z"/>
<path d="M400 5375 c0 -21 5 -25 28 -25 48 0 177 -37 240 -69 180 -91 311
-280 329 -476 6 -61 7 -65 31 -65 25 0 25 1 18 66 -30 293 -243 524 -534 580
-103 20 -112 19 -112 -11z"/>
<path d="M1820 5376 c0 -22 5 -26 28 -26 58 -1 170 -31 242 -66 55 -27 96 -58
151 -113 112 -112 157 -202 180 -356 11 -69 14 -76 33 -73 19 3 21 8 18 53
-10 154 -72 285 -192 406 -117 118 -232 174 -402 194 -58 7 -58 7 -58 -19z"/>
<path d="M3250 5376 c0 -21 5 -24 58 -30 283 -32 513 -262 539 -538 5 -63 8
-68 29 -68 21 0 24 5 24 38 0 69 -29 175 -70 257 -92 186 -264 314 -470 351
-105 19 -110 18 -110 -10z"/>
<path d="M4670 5377 c0 -23 5 -25 61 -31 148 -17 272 -80 379 -193 88 -92 136
-190 159 -319 14 -87 17 -94 39 -94 22 0 22 3 16 53 -39 335 -265 563 -596
602 -57 7 -58 7 -58 -18z"/>
<path d="M6100 5377 c0 -23 5 -25 61 -31 143 -16 291 -94 390 -205 83 -93 149
-252 149 -358 0 -39 2 -43 25 -43 23 0 25 4 25 43 0 67 -35 190 -77 270 -53
102 -173 220 -273 269 -81 40 -155 62 -244 73 -55 7 -56 7 -56 -18z"/>
<path d="M1104 5336 c-18 -14 -18 -15 3 -59 72 -149 72 -354 -1 -512 -37 -80
-109 -169 -179 -221 -55 -40 -64 -51 -56 -66 5 -10 14 -18 18 -18 21 0 137 98
178 149 56 72 108 178 129 266 24 106 15 267 -21 365 -37 102 -46 114 -71 96z"/>
<path d="M2525 5336 c-16 -11 -17 -17 -7 -29 27 -32 64 -163 69 -247 11 -174
-47 -330 -171 -454 -39 -39 -84 -81 -101 -93 -28 -20 -29 -22 -13 -38 15 -16
19 -16 60 13 59 41 151 141 188 205 17 29 42 88 57 132 23 69 27 96 27 200 -1
104 -4 131 -28 200 -15 44 -35 90 -44 103 -16 20 -20 21 -37 8z"/>
<path d="M3956 5337 c-17 -12 -17 -16 -3 -43 81 -158 79 -383 -6 -549 -35 -71
-109 -157 -173 -203 -54 -40 -61 -48 -51 -64 7 -10 15 -18 18 -18 4 0 34 20
68 45 108 80 196 212 231 351 24 93 26 232 5 320 -13 56 -59 174 -68 174 -2 0
-11 -6 -21 -13z"/>
<path d="M5379 5338 c-15 -10 -14 -16 8 -66 81 -184 67 -393 -38 -568 -32 -53
-122 -146 -182 -189 -26 -18 -27 -22 -14 -39 14 -18 15 -18 59 12 77 53 163
155 207 244 89 183 92 375 9 571 -22 50 -24 52 -49 35z"/>
<path d="M6806 5337 c-16 -12 -16 -16 7 -67 103 -235 53 -497 -129 -676 -40
-40 -82 -75 -93 -79 -23 -7 -26 -21 -11 -45 7 -12 19 -7 65 25 115 78 212 222
251 370 33 130 13 330 -46 446 -23 45 -21 43 -44 26z"/>
<path d="M0 5239 c0 -24 7 -32 48 -53 63 -32 136 -53 216 -61 66 -7 66 -7 66
17 0 24 -4 26 -64 32 -72 7 -158 34 -222 70 l-44 25 0 -30z"/>
<path d="M465 5109 c-170 -26 -325 -114 -424 -242 -42 -55 -50 -90 -21 -94 8
-1 31 20 50 48 153 222 477 309 727 194 30 -14 57 -25 59 -25 2 0 8 9 14 20 9
17 5 22 -38 44 -97 49 -253 73 -367 55z"/>
<path d="M1895 5110 c-135 -19 -257 -76 -356 -168 -58 -54 -119 -130 -119
-150 0 -6 8 -13 18 -17 12 -5 23 2 37 21 80 112 186 193 308 235 149 52 303
46 444 -17 31 -13 57 -23 57 -22 1 2 8 11 15 20 12 16 8 20 -40 43 -109 49
-250 71 -364 55z"/>
<path d="M3315 5109 c-175 -27 -340 -124 -433 -257 -31 -44 -38 -62 -30 -70
13 -13 38 -16 38 -4 0 17 99 125 150 163 120 91 270 136 410 124 73 -6 211
-45 238 -67 10 -8 17 -7 29 4 21 21 11 33 -44 58 -104 46 -249 66 -358 49z"/>
<path d="M4775 5114 c-175 -22 -316 -92 -423 -209 -73 -80 -92 -113 -72 -125
23 -15 26 -13 65 40 129 176 362 274 574 241 61 -10 105 -24 208 -68 6 -2 17
5 23 17 10 19 7 23 -42 45 -95 43 -246 70 -333 59z"/>
<path d="M6162 5109 c-174 -26 -344 -131 -440 -271 l-32 -47 22 -12 c19 -10
24 -9 37 12 147 220 426 326 671 253 30 -9 75 -25 98 -37 37 -17 45 -18 53 -6
17 27 8 36 -58 62 -124 48 -238 63 -351 46z"/>
<path d="M7340 5018 c-63 -36 -179 -147 -204 -197 -15 -28 -15 -35 -4 -42 19
-13 23 -10 75 56 43 53 151 146 183 157 6 2 10 16 8 31 l-3 27 -55 -32z"/>
<path d="M1914 4985 c-199 -149 -301 -415 -249 -658 16 -78 63 -187 79 -187 6
0 17 4 24 9 11 7 8 19 -13 61 -119 236 -34 571 186 731 32 24 59 46 59 49 0 3
-6 13 -13 22 -12 15 -19 13 -73 -27z"/>
<path d="M4789 5002 c-86 -64 -103 -80 -146 -137 -86 -113 -143 -275 -143
-405 0 -106 63 -320 94 -320 33 1 38 17 16 59 -31 62 -60 185 -60 255 1 154
61 304 167 417 36 38 80 78 99 90 38 23 40 28 22 51 -12 15 -16 14 -49 -10z"/>
<path d="M505 4998 c-94 -67 -187 -184 -232 -293 -65 -156 -53 -422 25 -547
15 -22 20 -25 34 -14 16 12 15 18 -12 87 -66 172 -60 336 21 499 41 83 126
182 202 235 20 14 27 25 22 38 -9 22 -23 21 -60 -5z"/>
<path d="M3329 4976 c-237 -186 -318 -521 -191 -788 25 -53 28 -56 46 -43 19
14 18 16 -7 72 -14 32 -30 78 -36 103 -16 68 -13 224 5 294 33 127 118 252
225 331 46 34 55 45 47 58 -14 25 -28 21 -89 -27z"/>
<path d="M6179 4976 c-159 -125 -249 -311 -249 -516 0 -97 25 -211 62 -284 22
-43 25 -45 43 -33 18 14 18 16 -5 68 -12 30 -29 77 -36 104 -18 67 -18 217 1
290 34 133 119 261 225 339 46 34 56 46 48 59 -14 25 -28 21 -89 -27z"/>
<path d="M394 4668 c19 -211 159 -415 347 -507 86 -42 167 -66 252 -74 44 -4
47 -3 47 19 0 20 -6 24 -47 29 -87 12 -165 35 -224 66 -185 99 -309 280 -326
477 -5 58 -7 62 -31 62 -25 0 -25 0 -18 -72z"/>
<path d="M1816 4688 c9 -87 33 -169 72 -248 51 -105 177 -231 282 -282 84 -41
170 -65 245 -70 45 -2 50 0 53 19 3 19 -3 22 -45 28 -195 24 -362 125 -463
278 -44 68 -84 180 -95 270 -6 51 -9 57 -30 57 -23 0 -24 -2 -19 -52z"/>
<path d="M3244 4673 c31 -302 274 -549 572 -581 73 -8 74 -8 74 15 0 13 -6 23
-12 23 -7 1 -47 7 -88 14 -234 42 -430 227 -485 457 -8 35 -15 81 -15 102 0
33 -3 37 -26 37 l-27 0 7 -67z"/>
<path d="M4670 4689 c0 -137 80 -309 197 -420 109 -105 248 -168 406 -182 44
-4 47 -3 47 19 0 20 -6 24 -47 29 -300 37 -524 257 -558 548 -5 47 -10 57 -26
57 -16 0 -19 -7 -19 -51z"/>
<path d="M6090 4708 c0 -61 30 -172 65 -246 101 -214 299 -352 537 -375 42 -4
47 -2 51 18 4 22 -1 24 -70 34 -154 23 -257 77 -365 190 -91 95 -144 203 -161
326 -11 78 -13 85 -34 85 -19 0 -23 -5 -23 -32z"/>
<path d="M2819 4698 c-26 -51 -104 -130 -173 -176 -103 -69 -177 -93 -307 -99
-119 -6 -184 4 -272 44 -58 26 -60 26 -74 7 -13 -18 -10 -21 44 -46 87 -41
167 -58 268 -58 157 0 297 49 418 145 52 41 147 155 147 176 0 4 -9 13 -20 19
-16 8 -21 6 -31 -12z"/>
<path d="M4231 4677 c-75 -109 -217 -208 -348 -242 -118 -31 -283 -16 -405 37
-42 18 -51 19 -59 7 -15 -24 -11 -29 47 -55 236 -104 519 -58 706 115 60 56
136 149 126 155 -1 1 -10 7 -20 14 -14 11 -20 7 -47 -31z"/>
<path d="M5651 4668 c-73 -105 -209 -198 -341 -233 -64 -17 -224 -19 -290 -4
-25 6 -71 22 -104 37 -57 25 -59 25 -73 6 -13 -18 -10 -21 44 -46 228 -107
518 -64 706 103 56 50 127 138 127 157 0 6 -8 16 -17 21 -15 7 -24 0 -52 -41z"/>
<path d="M7085 4680 c-77 -112 -218 -210 -350 -245 -119 -31 -286 -16 -403 35
-34 15 -48 17 -58 9 -24 -19 -16 -29 42 -55 97 -43 177 -56 299 -51 171 7 307
64 423 178 49 48 118 138 110 143 -1 1 -10 7 -19 14 -14 10 -20 6 -44 -28z"/>
<path d="M0 4685 c1 -26 2 -28 11 -12 8 14 8 22 0 30 -8 8 -11 3 -11 -18z"/>
<path d="M1381 4676 c-12 -19 -51 -62 -87 -95 -179 -168 -432 -209 -667 -108
-41 17 -50 18 -58 6 -15 -24 -11 -29 44 -54 89 -42 187 -58 306 -52 115 6 180
24 283 79 108 58 270 228 237 249 -24 15 -37 10 -58 -25z"/>
<path d="M7375 4628 c-26 -90 -25 -262 3 -343 l20 -60 1 233 c1 127 -1 232 -3
232 -2 0 -12 -28 -21 -62z"/>
<path d="M1110 4336 c0 -24 3 -26 41 -26 58 0 153 -26 229 -63 90 -43 224
-177 268 -267 37 -78 62 -168 62 -227 0 -40 2 -43 26 -43 l27 0 -6 69 c-11
137 -78 278 -180 383 -105 108 -256 181 -397 194 l-70 7 0 -27z"/>
<path d="M2532 4338 c3 -20 11 -24 68 -30 273 -27 506 -261 536 -535 6 -59 8
-63 31 -63 25 0 25 1 18 63 -10 86 -40 180 -82 257 -49 89 -168 205 -260 253
-80 42 -203 77 -270 77 -40 0 -44 -2 -41 -22z"/>
<path d="M3960 4336 c0 -24 3 -26 43 -26 97 0 243 -58 333 -132 131 -107 217
-270 225 -423 3 -40 5 -45 27 -45 25 0 25 1 19 69 -12 142 -79 281 -188 390
-109 109 -248 176 -390 188 l-69 6 0 -27z"/>
<path d="M5382 4338 c3 -20 11 -24 64 -30 146 -16 257 -70 364 -178 44 -43 89
-101 108 -137 35 -66 72 -195 72 -250 0 -29 3 -33 26 -33 26 0 26 0 19 58 -11
94 -25 143 -67 231 -52 109 -167 229 -275 284 -81 42 -204 77 -270 77 -40 0
-44 -2 -41 -22z"/>
<path d="M6810 4338 c0 -24 4 -25 68 -31 218 -19 424 -182 502 -398 l19 -54 1
72 c0 69 -1 73 -50 147 -107 160 -287 268 -471 283 -68 6 -69 6 -69 -19z"/>
<path d="M388 4300 c-15 -10 -15 -14 7 -63 119 -260 34 -583 -194 -738 -28
-19 -51 -37 -51 -40 0 -3 6 -13 13 -23 12 -16 17 -14 73 27 202 149 302 412
249 660 -14 66 -62 187 -74 187 -3 0 -14 -5 -23 -10z"/>
<path d="M1811 4301 c-12 -8 -10 -19 11 -68 55 -122 68 -231 44 -354 -31 -152
-116 -289 -231 -374 -56 -41 -64 -55 -42 -73 9 -8 28 0 72 34 115 85 205 222
241 364 34 134 16 317 -42 432 -25 50 -30 53 -53 39z"/>
<path d="M3238 4299 c-17 -9 -16 -13 7 -59 35 -69 55 -161 55 -255 0 -213
-108 -401 -299 -521 -1 -2 3 -12 11 -23 15 -21 15 -21 61 10 75 50 164 155
208 245 87 180 91 380 10 567 -21 50 -26 52 -53 36z"/>
<path d="M4663 4299 c-9 -9 -5 -26 13 -66 78 -177 66 -384 -33 -552 -40 -67
-134 -168 -184 -198 -33 -20 -34 -22 -16 -47 12 -16 17 -14 74 28 184 139 287
387 253 613 -14 89 -65 233 -84 233 -6 0 -17 -5 -23 -11z"/>
<path d="M6089 4300 c-15 -8 -14 -14 7 -57 51 -105 69 -261 43 -385 -27 -130
-125 -279 -239 -363 -43 -32 -48 -39 -38 -55 11 -17 14 -17 42 -3 57 29 180
163 219 240 94 181 102 397 23 577 -26 58 -30 62 -57 46z"/>
<path d="M0 4253 c0 -22 12 -37 54 -70 70 -54 131 -130 173 -218 31 -66 62
-182 63 -232 0 -18 6 -23 25 -23 29 0 30 5 11 110 -18 98 -54 186 -110 265
-47 65 -131 146 -185 178 l-31 18 0 -28z"/>
<path d="M1151 4070 c-173 -37 -311 -123 -408 -254 l-43 -59 21 -15 c19 -13
22 -13 30 1 47 83 168 189 268 234 157 70 359 70 500 -1 48 -25 71 -22 71 10
0 14 -63 45 -140 69 -65 19 -236 28 -299 15z"/>
<path d="M2550 4064 c-143 -30 -309 -142 -392 -262 -30 -44 -30 -45 -12 -59
17 -13 21 -12 39 14 43 62 163 170 222 201 168 88 370 95 540 17 51 -23 53
-23 63 -5 5 10 10 21 10 23 0 11 -149 66 -204 76 -79 15 -186 13 -266 -5z"/>
<path d="M3985 4065 c-170 -37 -307 -128 -402 -266 -31 -45 -31 -45 -11 -58
18 -11 22 -11 30 3 28 51 116 140 178 181 178 118 409 138 589 51 42 -20 52
-22 62 -10 20 24 2 41 -73 68 -133 48 -252 58 -373 31z"/>
<path d="M5430 4070 c-160 -28 -317 -127 -416 -262 -36 -49 -37 -51 -18 -65
17 -13 21 -11 44 19 130 171 279 255 475 265 110 6 187 -8 282 -52 51 -23 53
-23 63 -5 5 10 10 21 10 23 0 11 -149 66 -204 76 -67 12 -168 13 -236 1z"/>
<path d="M6835 4065 c-161 -35 -290 -117 -385 -243 -48 -64 -48 -66 -29 -80
12 -8 24 -10 28 -6 4 5 26 35 50 66 74 98 206 183 333 213 125 29 280 13 391
-40 38 -18 53 -21 59 -12 16 25 1 43 -56 65 -127 51 -269 64 -391 37z"/>
<path d="M0 4036 c0 -19 8 -27 38 -37 20 -6 53 -20 73 -30 34 -17 35 -17 48 3
7 11 11 22 9 24 -8 7 -114 51 -140 58 -25 6 -28 4 -28 -18z"/>
<path d="M1210 3956 c-123 -90 -222 -243 -256 -392 -23 -107 -15 -251 21 -355
34 -99 45 -115 72 -101 l20 11 -22 48 c-54 113 -71 277 -40 398 35 137 133
281 242 356 38 27 41 32 30 49 -6 11 -14 20 -17 20 -3 0 -25 -15 -50 -34z"/>
<path d="M2621 3944 c-82 -61 -146 -142 -191 -239 -50 -106 -64 -171 -63 -285
0 -104 20 -195 59 -272 26 -51 34 -57 53 -34 10 11 8 23 -7 53 -79 153 -76
366 5 528 40 78 107 159 172 207 62 45 70 58 47 77 -11 9 -27 1 -75 -35z"/>
<path d="M4068 3960 c-121 -80 -232 -247 -263 -395 -29 -138 -11 -305 46 -417
27 -54 24 -52 48 -38 l21 11 -25 49 c-53 105 -70 275 -40 395 35 137 131 276
253 366 29 21 32 26 20 42 -13 17 -16 16 -60 -13z"/>
<path d="M5466 3939 c-157 -122 -248 -310 -249 -514 0 -103 14 -174 54 -262
29 -65 38 -73 58 -49 10 11 8 23 -7 53 -87 170 -71 413 38 582 44 68 122 149
170 178 33 19 37 34 16 52 -10 9 -28 0 -80 -40z"/>
<path d="M6917 3960 c-203 -135 -315 -423 -262 -673 13 -61 61 -187 72 -187 2
0 13 5 24 10 19 11 19 11 -2 51 -54 108 -73 274 -43 399 32 138 139 297 243
360 45 28 46 29 28 53 -11 17 -16 16 -60 -13z"/>
<path d="M1105 3643 c11 -96 25 -144 68 -233 58 -119 168 -230 287 -289 85
-42 192 -71 263 -71 34 0 38 3 35 23 -3 19 -11 23 -66 29 -141 15 -256 72
-362 178 -55 54 -86 95 -112 150 -38 77 -68 180 -68 238 0 28 -3 32 -26 32
-26 0 -26 0 -19 -57z"/>
<path d="M2533 3631 c7 -82 43 -192 89 -268 43 -73 142 -172 215 -216 74 -45
196 -86 279 -94 l64 -6 0 27 c0 23 -4 26 -37 26 -21 0 -66 7 -101 15 -245 58
-462 312 -462 542 0 40 -2 43 -26 43 l-27 0 6 -69z"/>
<path d="M3950 3683 c1 -10 7 -52 14 -93 37 -206 167 -380 351 -471 81 -40
188 -69 258 -69 33 0 37 3 37 25 0 23 -4 25 -43 25 -59 0 -150 25 -224 61
-186 90 -316 274 -339 482 -6 52 -9 57 -30 57 -16 0 -24 -6 -24 -17z"/>
<path d="M5384 3631 c14 -159 100 -318 230 -429 95 -81 273 -151 384 -152 28
0 32 3 32 25 0 22 -4 25 -37 25 -181 1 -407 150 -496 326 -40 80 -67 173 -67
233 0 38 -2 41 -26 41 l-27 0 7 -69z"/>
<path d="M6806 3648 c3 -29 13 -80 21 -113 57 -230 252 -416 490 -469 89 -20
83 -20 83 7 0 20 -8 25 -69 40 -191 46 -335 160 -418 332 -31 66 -62 182 -63
233 0 17 -6 22 -25 22 -25 0 -26 -1 -19 -52z"/>
<path d="M681 3662 c-5 -10 -27 -39 -48 -64 -121 -146 -313 -228 -502 -215
-47 4 -96 9 -108 13 -20 5 -23 3 -23 -19 0 -30 15 -35 125 -43 213 -16 438 85
565 255 44 59 47 66 32 78 -23 17 -30 16 -41 -5z"/>
<path d="M2085 3630 c-113 -155 -302 -249 -496 -250 -74 0 -197 28 -258 59
l-40 21 -11 -21 c-14 -25 -16 -23 52 -53 230 -102 516 -55 702 115 50 45 126
138 126 152 0 4 -9 11 -19 17 -17 8 -25 3 -56 -40z"/>
<path d="M3505 3624 c-66 -95 -177 -173 -315 -220 -41 -14 -84 -19 -170 -19
-119 0 -174 12 -264 57 -31 16 -40 17 -47 6 -17 -26 -8 -36 51 -62 130 -58
305 -70 440 -30 139 41 273 134 348 242 40 58 42 62 23 71 -11 6 -21 11 -24
11 -2 0 -21 -25 -42 -56z"/>
<path d="M4941 3636 c-17 -24 -58 -69 -91 -99 -179 -162 -431 -201 -654 -103
l-56 25 -11 -21 c-13 -25 -8 -29 71 -59 182 -69 362 -62 535 21 87 42 195 132
245 206 35 51 35 50 11 64 -17 9 -24 4 -50 -34z"/>
<path d="M6351 3618 c-132 -180 -381 -273 -602 -224 -41 9 -97 27 -125 40 -38
18 -55 21 -63 13 -21 -21 -11 -34 47 -60 95 -42 141 -51 267 -51 105 0 130 3
200 28 138 48 238 119 320 228 43 58 45 63 29 75 -10 7 -20 13 -23 12 -3 0
-26 -27 -50 -61z"/>
<path d="M7350 3514 c-25 -20 -51 -39 -59 -43 -10 -6 -11 -13 -2 -30 12 -21
13 -21 42 -4 48 28 71 58 67 87 l-3 26 -45 -36z"/>
<path d="M6981 3439 c-6 -10 -11 -21 -11 -23 0 -9 158 -65 214 -75 65 -12 158
-14 194 -5 14 4 22 14 22 28 0 20 -4 21 -76 18 -91 -5 -176 10 -265 47 -63 27
-67 27 -78 10z"/>
<path d="M400 3306 c0 -22 6 -25 74 -35 100 -14 172 -43 262 -103 137 -92 234
-247 257 -411 11 -82 13 -87 36 -87 23 0 24 1 17 67 -32 308 -281 555 -593
587 -50 5 -53 4 -53 -18z"/>
<path d="M1820 3307 c0 -23 5 -25 74 -36 151 -22 246 -70 352 -175 38 -39 83
-93 98 -121 36 -66 72 -176 81 -247 6 -53 9 -58 30 -58 23 0 24 2 18 53 -17
169 -75 289 -193 407 -119 120 -233 174 -407 194 -51 6 -53 6 -53 -17z"/>
<path d="M3250 3305 c0 -20 6 -24 53 -30 291 -36 518 -262 544 -541 6 -60 7
-64 31 -64 25 0 25 0 18 69 -13 149 -79 283 -192 396 -107 108 -244 172 -401
188 -51 6 -53 5 -53 -18z"/>
<path d="M4670 3307 c0 -23 5 -25 74 -36 143 -21 238 -66 342 -163 104 -98
162 -211 186 -363 10 -68 14 -75 34 -75 22 0 23 3 18 53 -18 170 -74 288 -194
408 -119 119 -232 173 -407 193 -51 6 -53 6 -53 -17z"/>
<path d="M6100 3305 c0 -20 6 -24 53 -30 291 -36 520 -263 544 -537 5 -63 8
-68 29 -68 21 0 24 5 24 38 0 69 -30 175 -72 261 -96 195 -296 330 -525 354
-51 6 -53 5 -53 -18z"/>
<path d="M1105 3266 c-19 -14 -19 -15 3 -62 36 -78 52 -152 52 -249 0 -199
-87 -377 -241 -490 -52 -39 -57 -44 -44 -61 12 -17 15 -17 41 -4 55 28 177
162 217 237 97 184 103 424 14 599 -21 41 -24 43 -42 30z"/>
<path d="M2527 3266 c-18 -14 -18 -16 3 -56 32 -62 60 -185 60 -260 0 -85 -30
-204 -72 -283 -31 -60 -154 -195 -208 -229 -23 -15 -24 -17 -8 -33 15 -17 18
-17 50 3 42 26 139 124 174 176 65 95 114 253 114 365 0 77 -27 198 -59 268
-17 34 -31 63 -33 63 -2 0 -11 -7 -21 -14z"/>
<path d="M3955 3266 c-18 -13 -18 -15 3 -60 36 -75 53 -155 54 -248 0 -109
-14 -172 -63 -273 -44 -93 -100 -161 -180 -220 -51 -38 -55 -43 -43 -60 12
-17 16 -17 41 -4 55 28 177 162 215 234 98 188 105 416 18 598 -12 26 -23 47
-24 47 -1 0 -11 -6 -21 -14z"/>
<path d="M6806 3267 c-17 -12 -17 -16 -3 -43 8 -16 25 -63 38 -104 29 -94 31
-235 5 -325 -39 -132 -132 -267 -233 -336 -46 -32 -48 -36 -33 -59 14 -22 53
3 141 91 63 62 85 93 122 170 25 52 51 121 58 154 17 81 14 217 -6 294 -15 59
-59 171 -68 171 -2 0 -11 -6 -21 -13z"/>
<path d="M5372 3262 c-9 -6 -6 -21 14 -62 14 -29 32 -83 40 -119 52 -247 -52
-497 -267 -643 -22 -15 -23 -17 -8 -33 20 -20 33 -15 101 42 68 55 138 148
176 230 78 169 81 351 10 528 -24 59 -40 73 -66 57z"/>
<path d="M0 3165 c0 -14 9 -30 23 -39 39 -26 176 -67 243 -73 l64 -6 0 27 c0
23 -4 26 -37 26 -59 0 -162 28 -227 60 -33 17 -61 30 -63 30 -1 0 -3 -11 -3
-25z"/>
<path d="M490 3039 c-126 -13 -235 -55 -336 -132 -69 -53 -157 -159 -152 -184
6 -30 32 -25 56 11 159 234 479 325 741 210 41 -18 57 -21 67 -13 22 18 17 27
-23 48 -94 47 -235 71 -353 60z"/>
<path d="M1820 3024 c-110 -29 -218 -91 -300 -173 -41 -42 -81 -88 -89 -104
-13 -25 -13 -29 4 -41 17 -12 22 -8 60 43 116 157 293 244 496 244 91 -1 167
-19 281 -67 11 -5 20 -1 27 12 9 18 5 23 -45 46 -31 15 -84 33 -118 41 -77 19
-244 18 -316 -1z"/>
<path d="M3245 3024 c-97 -24 -202 -82 -278 -153 -87 -83 -135 -150 -116 -162
24 -15 37 -10 58 24 31 50 139 149 201 184 90 51 182 75 290 75 103 1 150 -8
248 -49 53 -22 65 -24 73 -12 5 8 9 18 9 22 0 12 -96 54 -165 72 -74 19 -238
19 -320 -1z"/>
<path d="M4650 3017 c-146 -44 -267 -129 -345 -241 -37 -53 -38 -57 -20 -70
17 -12 22 -8 60 43 116 157 293 244 496 244 91 -1 167 -19 281 -67 11 -5 20
-1 28 14 10 19 7 23 -46 46 -134 59 -317 71 -454 31z"/>
<path d="M6095 3024 c-33 -8 -93 -31 -133 -51 -117 -58 -298 -240 -261 -264
24 -15 37 -10 59 26 34 55 154 159 223 193 167 82 353 88 520 14 49 -21 60
-23 68 -11 5 8 9 18 9 22 0 12 -96 54 -165 72 -74 19 -238 19 -320 -1z"/>
<path d="M7363 2962 c-62 -33 -154 -113 -198 -173 -25 -34 -45 -64 -45 -68 0
-3 8 -11 18 -17 16 -10 25 -3 68 54 43 58 149 152 184 164 6 2 10 15 8 30 -3
26 -3 26 -35 10z"/>
<path d="M479 2906 c-79 -62 -134 -130 -179 -221 -53 -107 -70 -179 -70 -298
0 -106 16 -184 55 -273 22 -51 26 -54 45 -44 15 8 19 17 14 28 -4 9 -21 55
-37 102 -84 240 5 521 214 675 49 36 55 44 44 58 -17 24 -23 22 -86 -27z"/>
<path d="M1903 2903 c-219 -175 -304 -458 -217 -722 33 -100 51 -126 76 -108
16 12 15 17 -8 66 -76 158 -68 371 18 534 36 68 125 169 187 212 34 23 39 30
30 46 -5 11 -14 19 -19 19 -4 0 -35 -21 -67 -47z"/>
<path d="M3360 2929 c-115 -70 -232 -243 -265 -394 -25 -113 -17 -265 20 -365
37 -101 46 -114 70 -96 18 13 18 15 -3 60 -51 107 -69 278 -41 392 30 127 126
272 228 348 50 37 57 45 46 59 -15 21 -13 21 -55 -4z"/>
<path d="M4763 2911 c-117 -94 -186 -191 -230 -326 -22 -67 -26 -99 -27 -195
0 -124 14 -191 60 -283 22 -43 27 -47 42 -36 9 8 18 14 20 15 2 1 -6 21 -18
44 -31 61 -60 184 -60 254 1 159 63 311 174 422 39 39 84 80 101 91 25 18 27
23 16 37 -19 22 -23 21 -78 -23z"/>
<path d="M6181 2905 c-109 -80 -202 -225 -235 -365 -33 -138 -13 -317 47 -436
21 -41 24 -43 42 -30 19 14 19 15 -3 62 -71 153 -70 353 2 509 37 81 112 173
181 222 53 39 62 50 54 65 -5 10 -14 18 -18 18 -5 0 -36 -20 -70 -45z"/>
<path d="M390 2633 c1 -71 30 -178 71 -260 93 -184 264 -312 469 -349 105 -19
110 -18 110 11 0 19 -5 25 -22 25 -57 1 -170 33 -248 71 -185 92 -330 310
-330 496 0 39 -2 43 -25 43 -22 0 -25 -4 -25 -37z"/>
<path d="M1816 2618 c19 -166 74 -287 179 -397 40 -42 102 -93 137 -114 74
-44 188 -82 276 -91 61 -7 62 -6 62 17 0 22 -5 25 -79 35 -89 13 -179 46 -253
93 -73 47 -170 158 -211 241 -32 66 -67 195 -67 248 0 15 -6 20 -25 20 -25 0
-26 -1 -19 -52z"/>
<path d="M3240 2634 c0 -19 7 -67 16 -107 64 -281 283 -474 582 -512 51 -7 52
-6 52 19 0 20 -5 26 -22 26 -51 1 -167 32 -233 63 -187 89 -323 280 -342 482
-5 60 -8 65 -29 65 -21 0 -24 -5 -24 -36z"/>
<path d="M4670 2619 c0 -70 24 -160 68 -249 52 -106 178 -233 282 -283 77 -38
156 -61 248 -72 51 -7 52 -6 52 19 0 20 -5 26 -20 26 -53 0 -182 35 -247 67
-88 42 -187 131 -243 216 -44 68 -84 180 -95 270 -5 47 -10 57 -26 57 -16 0
-19 -7 -19 -51z"/>
<path d="M6094 2603 c4 -37 18 -101 32 -143 83 -246 290 -409 565 -445 44 -6
47 -4 51 20 5 22 2 25 -21 25 -100 1 -266 65 -357 138 -125 101 -223 292 -224
435 0 33 -3 37 -26 37 l-27 0 7 -67z"/>
<path d="M2801 2598 c-71 -103 -204 -195 -336 -234 -117 -34 -283 -21 -404 32
-29 13 -55 24 -57 24 -2 0 -8 -9 -14 -20 -10 -19 -6 -23 44 -45 130 -58 304
-74 431 -41 142 38 288 134 369 245 41 56 43 62 18 77 -15 10 -22 4 -51 -38z"/>
<path d="M1381 2606 c-12 -19 -53 -63 -91 -99 -174 -165 -433 -209 -650 -111
-52 23 -63 25 -71 13 -15 -24 -11 -29 44 -54 84 -39 165 -55 269 -56 139 0
247 31 360 104 100 65 219 202 195 226 -19 19 -34 13 -56 -23z"/>
<path d="M4230 2603 c-38 -55 -109 -122 -174 -165 -166 -107 -410 -123 -579
-36 -30 15 -42 17 -53 7 -22 -18 -17 -27 24 -47 279 -141 644 -46 821 212 27
38 31 50 20 57 -24 15 -33 10 -59 -28z"/>
<path d="M5651 2597 c-69 -101 -204 -194 -336 -233 -40 -12 -93 -17 -160 -17
-85 0 -113 5 -185 30 -47 16 -93 33 -102 37 -11 5 -20 1 -28 -14 -10 -19 -7
-23 44 -45 88 -39 167 -55 269 -55 127 0 183 13 297 67 79 38 108 59 170 122
88 89 112 127 90 141 -23 15 -27 13 -59 -33z"/>
<path d="M7062 2580 c-155 -213 -477 -296 -718 -186 -43 20 -60 23 -70 15 -22
-18 -17 -27 24 -47 191 -97 438 -85 628 29 108 65 246 219 213 240 -24 15 -33
10 -77 -51z"/>
<path d="M0 2608 c0 -19 2 -20 10 -8 13 19 13 30 0 30 -5 0 -10 -10 -10 -22z"/>
<path d="M7383 2585 c-7 -22 -18 -76 -24 -119 -12 -82 -3 -188 23 -271 12 -38
13 -34 16 78 1 64 1 170 0 235 -3 110 -4 114 -15 77z"/>
<path d="M1110 2266 c0 -21 5 -24 65 -30 240 -25 457 -214 519 -453 9 -34 16
-79 16 -102 0 -38 2 -41 26 -41 l27 0 -7 68 c-14 151 -69 265 -186 383 -69 70
-101 94 -170 128 -83 40 -192 70 -257 71 -28 0 -33 -4 -33 -24z"/>
<path d="M2530 2266 c0 -21 5 -24 65 -29 174 -16 342 -118 438 -266 59 -90 86
-157 99 -251 11 -73 14 -80 35 -80 28 0 28 10 9 112 -51 266 -240 462 -503
522 -40 9 -88 16 -107 16 -31 0 -36 -3 -36 -24z"/>
<path d="M3960 2265 c0 -22 4 -25 38 -25 57 0 149 -26 232 -67 180 -87 330
-310 330 -490 0 -39 2 -43 25 -43 23 0 25 4 25 43 -1 159 -107 359 -251 469
-98 76 -262 137 -366 138 -29 0 -33 -3 -33 -25z"/>
<path d="M5380 2265 c0 -22 4 -25 38 -25 62 0 190 -37 257 -75 169 -94 292
-278 311 -464 6 -56 9 -61 30 -61 29 0 31 19 8 128 -38 190 -173 366 -344 449
-86 42 -199 73 -264 73 -32 0 -36 -3 -36 -25z"/>
<path d="M6810 2265 c0 -22 4 -25 38 -25 58 0 156 -27 225 -61 141 -71 256
-197 307 -340 l19 -54 1 71 c0 66 -3 75 -41 134 -63 97 -149 174 -254 226 -87
43 -195 73 -262 74 -29 0 -33 -3 -33 -25z"/>
<path d="M388 2230 c-15 -10 -15 -14 7 -63 82 -179 71 -391 -30 -563 -29 -50
-124 -151 -183 -195 -30 -22 -32 -26 -19 -43 14 -19 16 -18 65 18 249 182 340
520 216 796 -28 64 -30 65 -56 50z"/>
<path d="M1816 2227 c-18 -13 -17 -15 2 -53 123 -242 45 -568 -175 -735 -32
-24 -60 -44 -61 -45 -7 -4 9 -44 18 -44 19 0 136 98 177 149 54 68 107 173
129 261 20 78 22 224 4 300 -12 51 -64 180 -72 180 -3 0 -12 -6 -22 -13z"/>
<path d="M3238 2229 c-17 -9 -16 -13 7 -59 35 -69 55 -161 55 -255 0 -161 -60
-307 -174 -420 -39 -39 -84 -79 -99 -90 -26 -18 -27 -22 -14 -39 14 -18 15
-18 59 12 69 47 160 151 201 229 94 180 102 393 20 575 -27 62 -29 63 -55 47z"/>
<path d="M4666 2227 c-16 -12 -15 -16 9 -69 95 -207 59 -452 -93 -635 -27 -32
-72 -74 -100 -93 -54 -37 -61 -50 -38 -69 17 -14 112 54 174 125 50 57 124
205 143 284 18 78 16 232 -5 309 -15 56 -60 161 -69 161 -2 0 -11 -6 -21 -13z"/>
<path d="M6089 2230 c-15 -9 -14 -14 6 -57 36 -75 55 -163 55 -254 0 -171 -56
-307 -174 -423 -39 -39 -83 -80 -98 -91 -25 -18 -26 -22 -14 -38 14 -18 16
-18 58 11 24 17 72 61 107 98 179 191 222 484 106 728 -19 39 -22 40 -46 26z"/>
<path d="M0 2181 c0 -24 9 -36 50 -66 106 -78 195 -222 225 -360 8 -39 15 -80
15 -92 0 -18 6 -23 25 -23 25 0 26 1 19 53 -24 198 -122 370 -273 475 l-61 43
0 -30z"/>
<path d="M1135 1994 c-112 -23 -243 -93 -323 -172 -37 -37 -77 -84 -89 -104
l-22 -38 20 -11 c12 -6 22 -9 23 -7 27 43 101 128 140 159 106 85 257 139 386
139 74 0 198 -28 258 -59 29 -15 42 -17 51 -8 22 22 11 35 -51 61 -129 54
-260 67 -393 40z"/>
<path d="M2588 2000 c-167 -28 -324 -125 -424 -262 -36 -49 -37 -51 -18 -65
17 -13 21 -12 39 14 11 15 51 60 90 98 176 175 450 225 666 121 50 -25 55 -25
66 -9 7 9 13 20 13 24 0 13 -154 68 -221 78 -73 12 -142 12 -211 1z"/>
<path d="M3985 1994 c-148 -31 -296 -125 -386 -244 -44 -59 -47 -66 -32 -77 9
-7 19 -13 23 -13 3 0 25 27 49 59 104 143 299 241 481 241 76 0 198 -28 261
-60 34 -18 43 -19 50 -8 17 25 9 35 -48 61 -121 54 -266 68 -398 41z"/>
<path d="M5432 1999 c-74 -12 -188 -58 -255 -103 -61 -41 -158 -140 -182 -186
-14 -27 -14 -30 6 -40 11 -7 22 -10 23 -8 136 224 394 337 646 284 36 -8 91
-25 122 -39 56 -25 58 -25 68 -7 5 10 10 21 10 24 0 2 -35 18 -78 35 -125 48
-237 60 -360 40z"/>
<path d="M6885 2003 c-182 -25 -353 -130 -455 -279 l-30 -43 22 -12 c19 -10
24 -9 37 12 8 13 49 58 90 100 117 117 264 178 427 179 70 0 193 -29 255 -60
34 -18 43 -19 50 -8 17 26 8 36 -51 62 -99 44 -236 64 -345 49z"/>
<path d="M0 1966 c0 -20 10 -28 58 -46 31 -13 63 -28 71 -34 18 -14 46 21 30
40 -8 10 -139 64 -155 64 -2 0 -4 -11 -4 -24z"/>
<path d="M1214 1886 c-120 -81 -228 -245 -259 -391 -29 -139 -14 -287 41 -412
25 -57 26 -58 53 -43 17 9 17 12 -5 58 -54 113 -70 275 -39 397 35 136 134
283 239 352 40 26 43 31 32 51 l-12 22 -50 -34z"/>
<path d="M2618 1870 c-180 -136 -281 -380 -248 -602 13 -91 65 -238 83 -238
31 1 39 16 24 46 -25 49 -55 156 -62 224 -21 202 89 436 257 548 42 27 44 31
26 55 -12 15 -19 12 -80 -33z"/>
<path d="M4054 1877 c-124 -91 -218 -237 -250 -388 -23 -106 -15 -240 21 -346
35 -105 45 -119 72 -104 l21 11 -24 50 c-94 194 -62 454 76 629 36 46 116 117
157 140 14 8 14 11 1 30 l-15 21 -59 -43z"/>
<path d="M5490 1886 c-236 -172 -332 -473 -240 -746 21 -62 47 -110 59 -110 3
0 12 4 20 9 12 8 11 16 -7 53 -82 176 -74 389 21 558 35 62 134 170 184 201
35 22 41 40 20 57 -9 8 -24 2 -57 -22z"/>
<path d="M6905 1878 c-242 -179 -331 -516 -209 -788 15 -33 29 -60 31 -60 2 0
13 5 23 10 18 10 18 12 -5 63 -117 256 -37 572 185 730 32 23 59 45 59 48 1 3
-5 13 -12 23 -12 16 -17 14 -72 -26z"/>
<path d="M1100 1605 c0 -60 34 -186 72 -264 32 -67 57 -101 121 -165 117 -117
247 -180 395 -193 74 -6 74 -6 70 18 -3 21 -9 25 -63 30 -84 9 -139 25 -220
67 -88 45 -207 162 -253 249 -35 66 -72 195 -72 250 0 29 -3 33 -25 33 -20 0
-25 -5 -25 -25z"/>
<path d="M2533 1561 c12 -142 78 -280 187 -390 108 -108 249 -176 391 -188 68
-6 69 -6 69 19 0 24 -4 25 -67 31 -271 24 -506 259 -530 530 -6 63 -7 67 -31
67 -25 0 -25 -1 -19 -69z"/>
<path d="M3955 1568 c10 -87 40 -181 82 -258 49 -89 168 -205 260 -253 80 -42
203 -77 270 -77 40 0 44 2 41 23 -3 19 -11 23 -63 28 -33 3 -80 12 -105 19
-145 39 -305 173 -373 311 -36 73 -66 183 -67 242 0 22 -4 27 -26 27 -26 0
-26 0 -19 -62z"/>
<path d="M5384 1559 c22 -244 197 -462 436 -545 40 -14 103 -28 141 -31 68 -6
69 -6 69 19 0 24 -4 25 -68 31 -264 22 -507 265 -529 529 -6 64 -7 68 -31 68
-25 0 -25 0 -18 -71z"/>
<path d="M6800 1613 c1 -47 30 -175 53 -229 84 -206 285 -365 505 -399 39 -6
42 -5 42 17 0 21 -7 25 -62 37 -88 17 -213 80 -279 140 -109 97 -187 247 -204
394 -7 51 -10 57 -31 57 -16 0 -24 -6 -24 -17z"/>
<path d="M651 1547 c-79 -106 -202 -186 -341 -222 -66 -17 -234 -17 -287 0
-20 6 -23 4 -23 -18 0 -33 15 -38 135 -44 82 -5 116 -2 184 16 152 38 271 111
356 218 66 83 68 88 42 100 -20 9 -27 3 -66 -50z"/>
<path d="M2091 1567 c-75 -109 -219 -207 -356 -242 -120 -30 -272 -15 -392 40
-51 23 -53 23 -63 5 -5 -10 -10 -21 -10 -23 0 -11 126 -59 187 -72 206 -44
428 17 579 158 57 53 124 135 124 151 0 3 -9 10 -19 16 -17 9 -24 4 -50 -33z"/>
<path d="M3503 1550 c-74 -104 -203 -189 -339 -224 -122 -31 -283 -16 -396 38
-48 23 -68 19 -68 -12 0 -17 70 -48 166 -72 247 -63 521 34 677 239 45 59 47
64 30 77 -10 7 -20 13 -23 13 -3 0 -24 -27 -47 -59z"/>
<path d="M4945 1569 c-78 -112 -242 -221 -373 -248 -121 -25 -265 -9 -378 43
-49 23 -51 23 -62 5 -7 -10 -12 -20 -12 -22 0 -3 27 -16 60 -31 233 -105 521
-57 706 117 57 53 124 135 124 151 0 3 -8 10 -19 15 -16 9 -23 4 -46 -30z"/>
<path d="M6361 1559 c-154 -227 -491 -315 -742 -195 -50 23 -50 23 -61 3 -14
-27 1 -38 110 -73 76 -25 102 -29 207 -29 98 0 133 4 190 23 140 47 250 125
332 236 40 54 42 60 26 72 -10 7 -20 13 -23 13 -3 0 -20 -22 -39 -50z"/>
<path d="M7350 1443 c-25 -19 -51 -38 -59 -42 -10 -7 -11 -13 -1 -30 11 -22
12 -22 39 -4 68 44 72 50 69 81 l-3 30 -45 -35z"/>
<path d="M6982 1369 c-7 -10 -12 -20 -12 -22 0 -3 27 -16 60 -31 83 -38 188
-57 284 -54 78 3 81 4 84 28 l3 25 -90 -3 c-98 -4 -180 12 -267 52 -49 23 -51
23 -62 5z"/>
<path d="M400 1230 c0 -15 9 -20 38 -25 172 -25 269 -71 380 -180 103 -104
157 -207 175 -340 11 -78 13 -85 34 -85 19 0 23 5 23 33 0 58 -29 168 -62 240
-59 128 -164 240 -287 306 -70 37 -191 71 -253 71 -41 0 -48 -3 -48 -20z"/>
<path d="M1820 1230 c0 -14 9 -20 38 -25 119 -18 155 -29 231 -66 185 -91 309
-272 336 -491 6 -42 9 -48 30 -48 23 0 24 2 18 53 -25 239 -157 430 -368 532
-95 46 -166 65 -240 65 -38 0 -45 -3 -45 -20z"/>
<path d="M3250 1232 c0 -17 8 -22 38 -27 194 -30 320 -96 427 -225 73 -88 134
-244 135 -342 0 -34 3 -38 26 -38 l27 0 -6 64 c-28 303 -283 560 -579 583 -64
5 -68 4 -68 -15z"/>
<path d="M4670 1232 c0 -17 8 -22 38 -27 119 -18 155 -29 229 -65 185 -91 313
-273 338 -482 7 -53 9 -58 32 -58 21 0 23 3 19 33 -3 17 -8 54 -12 82 -34 267
-296 512 -571 532 -69 6 -73 5 -73 -15z"/>
<path d="M6100 1232 c0 -17 8 -22 38 -27 148 -23 229 -54 328 -127 130 -97
234 -291 234 -437 0 -38 2 -41 26 -41 l27 0 -7 72 c-13 144 -77 277 -186 387
-109 109 -245 176 -386 188 -71 6 -74 5 -74 -15z"/>
<path d="M1106 1194 c-19 -14 -19 -15 3 -61 12 -27 28 -73 36 -103 19 -71 19
-229 0 -300 -35 -132 -132 -274 -235 -343 -44 -30 -47 -34 -36 -55 l12 -22 50
34 c117 79 217 225 254 372 37 143 19 328 -42 447 -21 42 -24 45 -42 31z"/>
<path d="M3956 1195 c-19 -14 -18 -16 7 -72 14 -32 31 -80 37 -108 17 -70 14
-219 -5 -289 -34 -130 -132 -270 -237 -340 -44 -30 -46 -34 -34 -52 13 -17 16
-17 42 -4 16 8 63 49 105 90 126 124 189 278 189 460 0 106 -17 186 -58 272
-25 53 -28 56 -46 43z"/>
<path d="M6806 1195 c-19 -14 -18 -16 7 -72 40 -91 50 -141 50 -248 0 -110
-28 -213 -80 -303 -33 -56 -120 -150 -172 -187 -43 -29 -49 -43 -29 -63 14
-14 53 12 131 87 165 156 235 397 183 623 -12 51 -62 179 -70 178 0 0 -10 -7
-20 -15z"/>
<path d="M2522 1191 c-11 -7 -10 -16 8 -50 12 -24 30 -77 41 -118 58 -230 -33
-487 -222 -625 -33 -23 -59 -45 -59 -48 0 -4 6 -14 13 -23 11 -15 18 -12 77
32 154 116 260 327 260 520 0 74 -26 194 -56 261 -26 59 -36 68 -62 51z"/>
<path d="M5372 1191 c-11 -7 -9 -18 11 -57 39 -80 52 -142 52 -254 0 -116 -13
-173 -58 -265 -52 -105 -115 -176 -235 -261 -2 -1 2 -11 9 -22 13 -20 15 -19
73 21 156 110 266 327 266 527 0 84 -22 184 -56 260 -26 59 -36 68 -62 51z"/>
<path d="M0 1092 c0 -26 6 -32 58 -55 70 -32 171 -57 230 -57 38 0 42 2 42 25
0 23 -4 25 -43 25 -72 0 -162 28 -279 88 -5 2 -8 -10 -8 -26z"/>
<path d="M392 950 c-40 -11 -105 -36 -145 -57 -79 -42 -202 -151 -232 -207
-18 -33 -18 -37 -3 -52 14 -15 18 -12 46 28 76 110 217 208 349 242 124 32
291 16 405 -38 46 -22 49 -22 58 -5 15 27 14 28 -46 55 -128 57 -295 70 -432
34z"/>
<path d="M1829 955 c-157 -38 -301 -138 -386 -267 -26 -38 -26 -41 -9 -54 17
-12 23 -7 64 48 54 72 134 137 217 178 159 78 361 81 519 8 47 -22 48 -22 62
-3 13 18 11 21 -32 43 -113 57 -305 78 -435 47z"/>
<path d="M3242 950 c-143 -38 -280 -131 -368 -251 -35 -48 -36 -51 -18 -64 17
-13 21 -12 39 13 11 15 52 59 91 98 116 118 252 174 424 174 94 0 180 -18 253
-54 45 -22 48 -22 57 -5 15 27 14 28 -46 55 -128 57 -295 70 -432 34z"/>
<path d="M4676 954 c-81 -19 -189 -73 -259 -129 -52 -41 -147 -155 -147 -176
0 -4 8 -13 18 -18 15 -8 26 1 65 54 49 69 141 144 222 181 158 73 370 73 515
-1 l47 -24 11 23 c10 22 7 25 -47 50 -123 55 -296 71 -425 40z"/>
<path d="M6092 950 c-145 -38 -295 -143 -372 -258 l-30 -46 22 -12 c20 -11 24
-8 50 32 69 104 215 204 348 239 115 31 280 16 402 -37 42 -18 51 -19 59 -7
15 24 11 29 -47 55 -128 57 -295 70 -432 34z"/>
<path d="M7345 878 c-79 -49 -132 -96 -180 -160 -51 -67 -52 -73 -27 -87 15
-8 26 1 65 54 40 53 129 133 184 164 9 4 13 19 11 34 l-3 26 -50 -31z"/>
<path d="M483 836 c-113 -83 -202 -219 -239 -366 -12 -48 -15 -94 -12 -185 4
-106 9 -130 37 -203 25 -62 37 -82 51 -82 30 0 31 14 6 71 -67 155 -67 334 0
488 46 104 148 223 231 270 16 8 10 51 -7 51 -4 0 -35 -20 -67 -44z"/>
<path d="M1920 846 c-77 -56 -159 -155 -200 -241 -84 -174 -90 -351 -20 -538
22 -59 38 -74 65 -64 12 5 10 15 -11 63 -74 168 -70 355 10 519 39 78 125 180
192 226 38 26 43 33 34 50 -14 25 -17 24 -70 -15z"/>
<path d="M3331 834 c-157 -118 -251 -310 -251 -516 0 -101 12 -168 47 -256 21
-52 29 -63 47 -60 26 4 25 14 -10 103 -36 93 -45 257 -20 355 35 137 114 258
221 337 55 40 62 49 52 65 -7 10 -15 18 -18 18 -4 0 -34 -21 -68 -46z"/>
<path d="M4760 837 c-235 -184 -318 -484 -212 -760 18 -48 33 -73 46 -75 29
-6 40 13 23 39 -9 13 -26 53 -38 89 -32 94 -32 277 0 370 44 126 120 231 221
305 43 31 48 39 40 56 -6 10 -14 19 -18 19 -4 0 -32 -20 -62 -43z"/>
<path d="M6199 848 c-106 -77 -194 -197 -241 -328 -19 -56 -23 -84 -22 -205 0
-129 2 -146 28 -215 33 -88 46 -105 74 -96 21 7 21 7 -3 54 -54 109 -71 281
-39 406 34 132 123 265 228 340 47 34 53 41 43 58 -15 24 -17 23 -68 -14z"/>
<path d="M390 557 c0 -67 35 -190 77 -270 46 -87 163 -209 244 -255 49 -28 66
-32 130 -32 l74 0 -65 23 c-98 35 -158 73 -235 151 -100 102 -158 220 -173
358 -6 55 -10 63 -29 66 -21 3 -23 -1 -23 -41z"/>
<path d="M1816 592 c-8 -13 12 -140 31 -197 50 -155 160 -289 306 -373 30 -17
54 -22 110 -21 l72 0 -62 23 c-225 84 -381 280 -408 514 -6 51 -10 62 -25 62
-11 0 -21 -4 -24 -8z"/>
<path d="M3240 563 c1 -72 30 -178 72 -263 50 -100 160 -218 249 -268 49 -28
66 -32 130 -32 l74 0 -70 25 c-134 47 -260 154 -330 279 -39 71 -75 192 -75
253 0 39 -2 43 -25 43 -22 0 -25 -4 -25 -37z"/>
<path d="M4669 595 c-10 -9 10 -141 30 -205 43 -137 153 -274 282 -352 58 -35
68 -38 138 -38 l76 1 -66 22 c-93 32 -171 82 -243 157 -100 103 -145 198 -167
345 -9 60 -15 75 -29 75 -9 0 -19 -2 -21 -5z"/>
<path d="M6094 534 c21 -204 130 -380 308 -494 58 -38 65 -40 137 -39 l76 0
-67 23 c-218 76 -384 285 -405 512 -6 60 -7 64 -31 64 -25 0 -25 -1 -18 -66z"/>
<path d="M1360 508 c-104 -140 -299 -238 -475 -238 -66 0 -169 23 -246 54 -63
25 -78 23 -79 -11 0 -19 148 -70 239 -83 226 -31 465 68 601 248 45 61 48 68
33 80 -9 6 -19 12 -22 12 -3 -1 -26 -28 -51 -62z"/>
<path d="M2801 526 c-47 -68 -145 -151 -224 -190 -77 -37 -196 -66 -274 -66
-67 0 -175 25 -240 55 -31 14 -57 25 -59 25 -2 0 -8 -9 -14 -20 -10 -19 -6
-23 52 -49 91 -41 160 -55 268 -55 183 1 327 60 455 189 92 92 117 131 95 145
-23 15 -27 13 -59 -34z"/>
<path d="M4220 519 c-44 -64 -134 -141 -208 -178 -165 -83 -331 -90 -509 -21
-61 23 -74 25 -84 14 -18 -21 3 -39 79 -67 222 -82 474 -41 653 106 77 63 153
165 138 183 -19 23 -32 16 -69 -37z"/>
<path d="M5654 529 c-46 -67 -149 -154 -227 -192 -77 -38 -196 -67 -274 -67
-68 0 -175 25 -240 55 -31 14 -57 24 -57 23 -1 -2 -7 -11 -15 -20 -11 -15 -8
-19 26 -36 83 -43 184 -66 288 -66 187 0 330 59 460 189 92 91 118 131 95 145
-23 15 -25 13 -56 -31z"/>
<path d="M7071 519 c-96 -141 -306 -249 -486 -249 -69 0 -176 24 -243 55 -52
24 -57 25 -69 9 -16 -23 -11 -30 44 -54 127 -56 303 -70 433 -36 83 23 201 84
264 138 71 61 140 157 125 174 -19 23 -32 16 -68 -37z"/>
<path d="M0 539 c0 -11 4 -17 10 -14 13 8 13 35 0 35 -5 0 -10 -9 -10 -21z"/>
<path d="M7375 480 c-12 -48 -19 -107 -19 -165 0 -58 7 -117 19 -165 l20 -75
3 123 c1 68 1 176 0 240 l-3 117 -20 -75z"/>
<path d="M1110 196 c0 -23 4 -26 33 -26 94 -1 247 -60 336 -130 36 -29 60 -40
83 -40 l33 1 -53 49 c-95 88 -230 149 -369 165 -63 7 -63 7 -63 -19z"/>
<path d="M2530 196 c0 -23 4 -26 33 -26 50 0 178 -35 239 -65 29 -15 76 -45
105 -67 41 -31 59 -39 85 -36 l33 3 -68 56 c-107 89 -228 140 -364 155 l-63 7
0 -27z"/>
<path d="M3960 196 c0 -22 5 -26 28 -26 46 0 157 -27 213 -52 30 -12 82 -44
117 -70 45 -35 72 -48 95 -48 l32 1 -58 54 c-90 85 -223 143 -369 160 -58 7
-58 7 -58 -19z"/>
<path d="M5386 205 c-11 -29 -7 -32 58 -39 107 -11 217 -56 313 -127 35 -27
63 -39 84 -39 l33 0 -30 31 c-82 87 -259 170 -390 184 -52 6 -62 4 -68 -10z"/>
<path d="M6810 195 c0 -22 4 -25 33 -25 96 0 264 -66 346 -136 28 -24 49 -34
73 -34 l33 1 -58 54 c-71 67 -192 128 -299 149 -111 23 -128 22 -128 -9z"/>
<path d="M388 157 c-15 -10 -15 -13 1 -46 10 -20 24 -53 30 -73 10 -30 18 -38
37 -38 13 0 24 5 24 11 0 17 -61 159 -68 158 -4 0 -15 -5 -24 -12z"/>
<path d="M1816 157 c-16 -12 -16 -16 7 -67 14 -30 27 -63 30 -72 4 -11 16 -18
31 -18 l25 0 -18 53 c-18 51 -48 117 -54 117 -2 0 -11 -6 -21 -13z"/>
<path d="M3239 158 c-14 -10 -12 -19 15 -84 26 -62 35 -73 55 -74 20 0 22 3
16 28 -9 37 -56 142 -64 141 -3 0 -13 -5 -22 -11z"/>
<path d="M4666 157 c-16 -12 -16 -16 7 -67 14 -30 27 -63 30 -72 4 -11 16 -18
31 -18 20 0 23 4 19 23 -7 26 -60 147 -65 147 -3 0 -12 -6 -22 -13z"/>
<path d="M6089 158 c-15 -10 -14 -17 12 -72 16 -34 29 -67 29 -73 0 -7 12 -13
26 -13 24 0 25 3 19 28 -9 37 -56 142 -64 141 -3 0 -13 -5 -22 -11z"/>
<path d="M0 107 c0 -16 14 -35 43 -57 23 -19 44 -38 45 -42 2 -4 22 -8 44 -8
l41 0 -19 21 c-25 27 -133 109 -145 109 -5 0 -9 -10 -9 -23z"/>
</g>
</svg>
